<?xml version="1.0" encoding="UTF-8"?>
<svg xmlns="http://www.w3.org/2000/svg" viewBox="0 0 292.72 424.21">
  <defs>
    <style>
      .cls-1 {
        fill: #fff;
      }

      .cls-2 {
        fill: none;
        stroke: #000;
        stroke-miterlimit: 10;
        stroke-width: 3px;
      }
    </style>
  </defs>
  <g id="Layer_13" data-name="Layer 13">
    <path class="cls-1" d="M103.72,2.84c-9,1.5-27.49,5.16-41,22-9.17,11.43-16.23,26.14-20,37-2.39,6.89-8.13,20.08-14,39-4.5,14.5-11,44-15,55-5.27,14.49-10.45,13.38-13,27-3,16,4.15,28.52,7,38,9,30,5.2,34.81,30,72,8,12,23,13,29,30,4.64,13.13-7,38,7,71,10.85,25.58,32.94,5.18,78,13,33.32,5.78,56.16,25.09,86,14,3.23-1.2,55.09-4.95,55-27-.04-10.45-2.81-12.94-12-30-14-26-4.89-32.86-6.5-63.5-2.9-55-11.47-51.58-11-88,.59-45.08,4.43-65.7-7.5-98.5-4-11-2.1-50.43-48-90C178.72-1.16,139.72-3.16,103.72,2.84Z"/>
  </g>
  <g id="Layer_1" data-name="Layer 1">
    <path class="cls-2" d="M234.99,135.47c-.28-.95-.53-1.65-.77-2.14-2.91-5.94-8.01-9.7-19-15-12.7-6.13-22.95-11.07-39-14-4.91-.9-25.93-4.44-53,1-19.24,3.87-33,12-42,17-1.17.65.11-.03-17,26-11.8,17.95-12.3,18.42-14,22-2.3,4.83-3.87,7.22-7,12-5.04,7.69-7.15,9.15-9,9-1.96-.16-3.47-2.13-5-5-7.78-14.58-5-31-5-31,.75-4.44,2.49-11.34,7-19-.01-.69-.02-1.74,0-3,.2-12.35,2.9-22.73,9-39,3.65-9.74,8.53-21.64,15-35-.67-.88-1.33-2.19-1-4,2-11,13.38-21.68,22-29,6.34-5.39,15.34-13.17,34-17,11.53-2.37,20.5-.7,23,0,5.1,1.43,4.27.98,9,3,12.1,5.17,13.24.92,25,3,11.13,1.96,22.4,8.02,32,16,10.57,8.79,17.29,15.41,23,24,4.93,7.43,14.11,21.13,20,40,2.6,8.34,4.1,15.58,5,21,2.26,4.03,5.15,10.14,7,18,3.22,13.67,1.41,24.67,1,27-1.59,8.97-1.62,8.7-4,21-1.45,7.5-3.16,10.02-5,15-2.6,7.03-6.84,11.95-10,15-.31-7.66,1.37-12.74,3-16,1.05-2.1,2.26-3.8,3-7,.78-3.36.42-5.73,0-10-.66-6.7-.48-7.66-.62-10.12"/>
    <g id="Layer_7" data-name="Layer 7">
      <path class="cls-2" d="M31.22,136.34c6.03-9.57,16.42-23.54,33-36,37.4-28.11,78.17-27.43,92-27,15.76.49,40.5,1.58,65,18,12.62,8.46,20.97,18.16,26,25"/>
    </g>
  </g>
  <g id="Layer_3" data-name="Layer 3">
    <path class="cls-2" d="M78.22,127.34c1-1.33,2-2.67,3-4,3.87-1.4,7.28-1.89,10-2,1.15-.05,2.08-.02,3,0,3.65.1,7,.48,10,1,1.4-1.63,3.58-4.16,7-6,13-7,38-1,46,6,4.93,4.31,7.59,12,9,12,1,0,7.36.03,15,1,4.86.62,8.66,2,11,3,4.16-4.83,8.53-7.01,11-8,11.39-4.56,22.06.23,26,2,2.78,1.25,7.22,3.3,11,8,2.12,2.63,3.32,5.21,4,7,2.67.67,5.33,1.33,8,2v3c-2.33-.33-4.67-.67-7-1,.38,2.03.71,5.22,0,9-1.33,7.05-5.44,11.47-7,13-5.62,5.49-12.16,6.57-15,7-2.2.33-10.03,1.4-18-3-5.75-3.17-8.9-7.5-11-11q-3-5-4-10c-.89-4.47,0-11,0-14,0-.69-.37-1.37-1-2-1-1-4.25-1.85-10-3-5-1-10-1-11-1s-2,1-2,2c0,3,.02,12.15-4,18-4.36,6.35-10.7,8.75-14,10-11.03,4.17-21.01,1.41-25,0-3.08-1.09-9.58-3.48-15-10-1.2-1.44-5.72-7.15-7-16-.89-6.17.18-11.21,1-14-2.33-.49-5.02-.88-8-1-6.54-.27-12.04.83-16,2Z"/>
  </g>
  <g id="Layer_4" data-name="Layer 4">
    <path class="cls-2" d="M102.22,321.34c8.93,19.64,13,30,10,37-3.51,8.18-14.14,14.85-22,12-8.08-2.93-13.58-16.06-8-30-8.98,10.19-10.47,24.52-4,35,5.32,8.63,15.07,13.1,24,13,13.28-.15,21.49-10.38,26-16,2.36-2.94,11.18-14.64,11-31-.08-7.05-1.73-6.6-14-39-4.59-12.13-7.46-20.38-10-31-1.48-6.19-2.42-11.4-3-15-9.26-6.39-16.62-12.36-22-17-16.84-14.54-21.72-22.61-24-27-3.4-6.55-4.53-11.62-5-15-.69-4.94-.4-9.13,0-12-.18.52-1.74,4.71-6,6-2.18.66-4.08.26-5,0"/>
    <path class="cls-2" d="M80.22,290.34c4.29,6.15,13.56,17.12,16,22"/>
    <g id="Layer_5" data-name="Layer 5">
      <path class="cls-2" d="M50.22,191.34c-1.03-.3-2.5-.88-4-2-2.33-1.74-3.49-3.87-4-5"/>
    </g>
    <g id="Layer_6" data-name="Layer 6">
      <path class="cls-2" d="M32.22,190.34c-.22.34-4.19,6.2-11,6-5.51-.16-10.48-4.21-12-10-.12,2.95-.03,7.14,1,12,.89,4.18,6,11,13,14"/>
    </g>
    <g id="Layer_11" data-name="Layer 11">
      <path class="cls-2" d="M57.86,279.22c4.91,2.07,11.19,4.93,20.36,10.12,9.77,5.53,12.14,7.65,14,10,9.74,12.31-1,30-7,36,7-3,18.11-11.79,21-23,2.94-11.39,1.73-15.09-5-27-5.27-9.32-9-12-21-22-11.66-9.71-14-10-16-15"/>
      <path class="cls-2" d="M32.22,199.34c-6.5,6.55-13.23,16.85-14,29-.77,12.13,4.33,22.97,11,31.26"/>
    </g>
    <g id="Layer_12" data-name="Layer 12">
      <path class="cls-2" d="M35.22,191.34c-8.56,20.71-6.98,35.33-7,46-.03,17.2-.06,32.7,11,45,12.12,13.49,30.09,14.81,36,15-1.85-.88-16.26-8.02-19-23-2.54-13.93,6.76-24.97,11-30,5.25-6.23,11.05-9.92,15-12"/>
    </g>
  </g>
  <g id="Layer_9" data-name="Layer 9">
    <g id="Layer_10" data-name="Layer 10">
      <path class="cls-2" d="M244.22,247.34c.34-2.48.51-6.11-.57-10.25-2.4-9.21-9.21-14.25-11.43-15.75-.55,1.57-1.2,3.24-2,5-.65,1.44-1.33,2.77-2,4"/>
      <path class="cls-2" d="M215.22,360.34c13,23,22.86,44.93,40,46,.63.04,15.45.76,22-9,2.4-3.58,2.93-7.43,3-10-4.87,5.72-12.18,8.44-19,7-10.48-2.21-16.7-13.54-15-21,1.62-7.13,4.44-11.18,9-20,4.42-8.54,6.69-13.34,4-23-3.44-12.34-5.55-22.81-9-33"/>
    </g>
    <g id="Layer_8" data-name="Layer 8">
      <path class="cls-2" d="M201.54,294.89c-4.19-8.81-10.47-16.5-16.32-22.56,2.04-.98,5.13-2.79,8-6,.73-.81,1.36-1.63,1.91-2.41,1.66-2.38,3.76-4.41,6.26-5.9,3.89-2.32,8.35-5.47,12.84-9.69,6.91-6.5,11.31-13.15,14-18,5.59,4.66,14.01,12.76,21,25,5.75,10.06,9.75,17.06,9,26-1.01,12.17-9.63,13.77-17,32-5.31,13.14-1.3,13.48-6,24-6.37,14.27-14.98,16.42-22.72,26.39"/>
      <path class="cls-2" d="M201.8,388.6c-.39,3.85.13,7.66,2.42,10.74,3.27,4.39,10.44,7.63,17,5,5.93-2.38,9.74-8.91,9-16,3.29,5.69,3.3,12.61,0,18-3.98,6.5-11.45,8.61-17,8-9.61-1.06-14.98-10.46-17-14-4.98-8.72-7-23-5-28"/>
    </g>
    <path class="cls-2" d="M228.22,397.34c-7.13-2.68-10.71-6.32-12-8-11.84-15.5.59-42.89,7-57,6.21-13.68,9.43-14.57,13-23,5.9-13.93,7.62-36.31-12-73"/>
    <path class="cls-2" d="M232.22,401.34c4.83.19,9.25-.75,11-1-3.92-.16-7.32-.63-10.25-1.31"/>
    <path class="cls-2" d="M201.22,258.34c3.2,4.39,7.27,11.45,7,20-.37,11.51-8.29,15.99-15,29-9.89,19.17-7.69,38.51-7,44,1.26,9.94,3.56,28.12,19,40,7,5.38,14.6,7.86,21.22,8.9"/>
  </g>
</svg>